<?xml version="1.0" encoding="utf-8"?>
<svg version="1.1" xmlns="http://www.w3.org/2000/svg" xmlns:xlink="http://www.w3.org/1999/xlink" x="0px" y="0px" viewBox="0 0 1280 640" enable-background="new 0 0 1280 640" xml:space="preserve">
	<rect fill="#EEEEEE" width="1279" height="639"/>
	<g>
		<path fill="#222222" d="M479.5,287.5c0,35.4-28.6,64-64,64h-80v-32h80c17.7,0,32-14.3,32-32c0-17.7-14.3-32-32-32h-80v-32h80c17.7,0,33.7,7.2,45.3,18.7C472.3,253.8,479.5,269.8,479.5,287.5z"/>
		<rect x="319.5" y="223.5" fill="#111111" width="32" height="192"/>
	</g>
	<g>
		<polygon fill="#333333" points="671.5,415.5 591.5,335.5 546.2,335.5 626.2,415.5"/>
		<path fill="#222222" d="M671.5,287.5c0,35.4-28.6,64-64,64h-80v-32h80c17.7,0,32-14.3,32-32c0-17.7-14.3-32-32-32h-80v-32h80c17.7,0,33.7,7.2,45.3,18.7C664.3,253.8,671.5,269.8,671.5,287.5z"/>
		<rect x="511.5" y="223.5" fill="#111111" width="32" height="192"/>
	</g>
	<g>
		<rect x="703.5" y="239.5" fill="#222222" width="32" height="176"/>
		<rect x="703.5" y="223.5" fill="#111111" width="32" height="32"/>
	</g>
	<g>
		<polygon fill="#222222" points="767.5,415.5 799.5,415.5 799.5,278.2 767.5,246.2"/>
		<polygon fill="#222222" points="927.5,415.5 959.5,415.5 959.5,246.2 927.5,278.2"/>
		<polygon fill="#111111" points="959.5,223.5 959.5,268.8 927.5,300.8 886.1,342.1 863.5,364.7 840.9,342.1 799.5,300.8 767.5,268.8 767.5,223.5 863.5,319.5"/>
	</g>
</svg>
